HIERARCHY
ROOT Hips
{
	OFFSET 0.000000 0.000000 0.000000
	CHANNELS 6 Xposition Yposition Zposition Xrotation Yrotation Zrotation
	JOINT LeftUpLeg_virtual
	{
		OFFSET 0.000000 0.000000 0.000000
		CHANNELS 3 Xrotation Yrotation Zrotation
		JOINT LeftUpLeg
		{
			OFFSET 10.205400 -3.823500 0.155100
			CHANNELS 3 Xrotation Yrotation Zrotation
			JOINT LeftLeg
			{
				OFFSET 0.708757 -12.982077 0.567790
				CHANNELS 3 Xrotation Yrotation Zrotation
				JOINT LeftFoot
				{
					OFFSET -0.708756 -10.717838 -2.184338
					CHANNELS 3 Xrotation Yrotation Zrotation
					JOINT LeftToeBase
					{
						OFFSET 0.108149 -7.191104 7.560241
						CHANNELS 3 Xrotation Yrotation Zrotation
						JOINT LeftToe_End
						{
							OFFSET 0.070230 0.081724 4.490308
							CHANNELS 3 Xrotation Yrotation Zrotation
							End Site
							{
								OFFSET 0 0 0
							}
						}
					}
				}
			}
		}
	}
	JOINT RightUpLeg_virtual
	{
		OFFSET 0.000000 0.000000 0.000000
		CHANNELS 3 Xrotation Yrotation Zrotation
		JOINT RightUpLeg
		{
			OFFSET -10.205400 -3.823500 0.005500
			CHANNELS 3 Xrotation Yrotation Zrotation
			JOINT RightLeg
			{
				OFFSET -0.708756 -12.982134 0.610632
				CHANNELS 3 Xrotation Yrotation Zrotation
				JOINT RightFoot
				{
					OFFSET 0.708754 -10.717769 -1.945823
					CHANNELS 3 Xrotation Yrotation Zrotation
					JOINT RightToeBase
					{
						OFFSET -0.108140 -7.191069 7.372968
						CHANNELS 3 Xrotation Yrotation Zrotation
						JOINT RightToe_End
						{
							OFFSET -0.070227 0.081735 4.479403
							CHANNELS 3 Xrotation Yrotation Zrotation
							End Site
							{
								OFFSET 0 0 0
							}
						}
					}
				}
			}
		}
	}
	JOINT Spine_virtual
	{
		OFFSET 0.000000 0.000000 0.000000
		CHANNELS 3 Xrotation Yrotation Zrotation
		JOINT Spine
		{
			OFFSET 0.000000 6.876099 0.125700
			CHANNELS 3 Xrotation Yrotation Zrotation
			JOINT Spine1
			{
				OFFSET 0.000000 5.730043 0.104720
				CHANNELS 3 Xrotation Yrotation Zrotation
				JOINT Spine1_split
				{
					OFFSET 0.000000 5.730043 0.104720
					CHANNELS 3 Xrotation Yrotation Zrotation
					JOINT Spine2
					{
						OFFSET 0.000000 5.730043 0.104720
						CHANNELS 3 Xrotation Yrotation Zrotation
						JOINT Neck_virtual
						{
							OFFSET 0.000000 0.000000 0.000000
							CHANNELS 3 Xrotation Yrotation Zrotation
							JOINT Neck
							{
								OFFSET 0.000000 10.314075 0.188496
								CHANNELS 3 Xrotation Yrotation Zrotation
								JOINT Head
								{
									OFFSET 0.000000 7.643700 -2.377400
									CHANNELS 3 Xrotation Yrotation Zrotation
									JOINT HeadTop_End
									{
										OFFSET 0.000000 43.788605 -13.619600
										CHANNELS 3 Xrotation Yrotation Zrotation
										End Site
										{
											OFFSET 0 0 0
										}
									}
								}
							}
						}
						JOINT LeftShoulder_virtual
						{
							OFFSET 0.000000 0.000000 0.000000
							CHANNELS 3 Xrotation Yrotation Zrotation
							JOINT LeftShoulder
							{
								OFFSET 2.196100 4.412489 0.087492
								CHANNELS 3 Xrotation Yrotation Zrotation
								JOINT LeftShoulder_split
								{
									OFFSET 2.196100 4.412489 0.087492
									CHANNELS 3 Xrotation Yrotation Zrotation
									JOINT LeftArm
									{
										OFFSET 8.771219 -2.981674 -0.026999
										CHANNELS 3 Xrotation Yrotation Zrotation
										JOINT LeftForeArm
										{
											OFFSET 8.512804 0.000000 -0.000000
											CHANNELS 3 Xrotation Yrotation Zrotation
											JOINT LeftHand
											{
												OFFSET 18.484802 0.000000 -0.000000
												CHANNELS 3 Xrotation Yrotation Zrotation
												End Site
												{
													OFFSET 0 0 0
												}
											}
										}
									}
								}
							}
						}
						JOINT RightShoulder_virtual
						{
							OFFSET 0.000000 0.000000 0.000000
							CHANNELS 3 Xrotation Yrotation Zrotation
							JOINT RightShoulder
							{
								OFFSET -2.196100 4.412496 0.070690
								CHANNELS 3 Xrotation Yrotation Zrotation
								JOINT RightShoulder_split
								{
									OFFSET -2.196100 4.412496 0.070690
									CHANNELS 3 Xrotation Yrotation Zrotation
									JOINT RightArm
									{
										OFFSET -8.771282 -2.981682 -0.094208
										CHANNELS 3 Xrotation Yrotation Zrotation
										JOINT RightForeArm
										{
											OFFSET -8.494598 0.000000 0.000000
											CHANNELS 3 Xrotation Yrotation Zrotation
											JOINT RightHand
											{
												OFFSET -18.483803 0.000000 0.000001
												CHANNELS 3 Xrotation Yrotation Zrotation
												End Site
												{
													OFFSET 0 0 0
												}
											}
										}
									}
								}
							}
						}
					}
				}
			}
		}
	}
}
MOTION
Frames: 7
Frame Time: 0.03333333
2.130137 50.843948 5.077325 0.000000 0.000000 0.000000 9.576390 -31.300421 4.243693 -79.523694 -9.785290 31.980732 78.131217 -14.859213 6.769499 20.047112 6.392311 -16.073850 -7.484042 3.043976 -2.866212 0.000000 0.000000 0.000000 9.284232 -31.322547 3.797512 -115.660866 -21.092956 -6.572558 106.485074 22.809746 -1.776854 27.912982 19.597119 45.215743 11.454376 -21.077646 -30.365556 0.000000 0.000000 0.000000 11.603200 -25.298428 4.971675 23.622887 0.772261 -10.511601 15.221988 -3.946934 -0.736938 0.242981 0.095059 0.051634 0.000000 0.000000 0.000000 16.197520 -1.952096 -1.179333 2.120934 1.099005 -3.986053 -13.974849 46.695469 -20.873109 0.000000 0.000000 0.000000 16.864437 -3.533947 -2.420397 13.455897 -15.360976 -0.635974 2.517139 -4.175611 -1.584555 -71.262601 -19.475794 5.050703 43.661551 -0.233090 20.633071 0.000000 0.000000 0.000000 20.922130 -2.170652 -1.352010 4.742978 21.082369 -9.565381 8.242222 6.323983 1.985545 -49.253450 6.129577 5.812598 -57.294997 44.452114 31.634229 0.000000 0.000000 0.000000 
2.155378 50.812542 5.025805 0.000000 0.000000 0.000000 9.703318 -31.498442 4.300204 -79.643537 -9.887908 32.006625 78.224490 -14.911387 6.872848 20.145141 6.414361 -16.261972 -7.451494 2.995664 -2.885507 0.000000 0.000000 0.000000 9.376991 -31.475906 3.859874 -115.434842 -21.147399 -6.764262 106.255095 22.980892 -1.895657 27.738272 19.734985 45.146912 11.441049 -21.078100 -30.446456 0.000000 0.000000 0.000000 11.645235 -25.465501 5.036339 23.362017 0.879332 -10.440608 15.235104 -3.917899 -0.717868 0.239378 0.121657 0.051570 0.000000 0.000000 0.000000 16.238621 -1.930960 -1.206634 2.330691 1.004324 -4.178735 -13.225942 45.925724 -21.462602 0.000000 0.000000 0.000000 16.856547 -3.520385 -2.460246 13.292356 -15.573316 -1.292490 2.638152 -4.234637 -1.664139 -70.183575 -19.053904 5.163711 43.765366 -0.451250 20.517584 0.000000 0.000000 0.000000 20.999832 -2.137022 -1.353378 4.505462 20.954165 -8.866524 8.277775 6.276347 2.092662 -48.038606 6.401737 5.874973 -56.690157 44.390229 30.878080 0.000000 0.000000 0.000000 
2.175519 50.783142 4.969200 0.000000 0.000000 0.000000 9.842518 -31.658473 4.400564 -79.687004 -9.923939 32.006953 78.189984 -14.945437 6.903085 20.148530 6.506248 -16.357000 -7.463634 2.941022 -2.887181 0.000000 0.000000 0.000000 9.494255 -31.584980 3.961216 -115.144367 -21.184088 -6.965006 105.969504 23.134845 -2.045957 27.513571 19.823265 45.146929 11.368035 -21.055202 -30.491942 0.000000 0.000000 0.000000 11.692712 -25.593805 5.119193 23.103265 0.955972 -10.392777 15.198561 -3.894221 -0.694703 0.237822 0.141956 0.050269 0.000000 0.000000 0.000000 16.241456 -1.908594 -1.236957 2.506566 0.877509 -4.373348 -12.514238 45.081397 -21.966717 0.000000 0.000000 0.000000 16.822904 -3.503848 -2.476354 13.212040 -15.675006 -1.794266 2.695140 -4.266346 -1.853639 -69.021452 -18.574508 5.426041 43.894402 -0.697681 20.474650 0.000000 0.000000 0.000000 21.027145 -2.110133 -1.362385 4.308529 20.755651 -8.238070 8.277581 6.260783 2.337324 -46.786847 6.393831 5.670052 -56.253267 44.294108 30.336111 0.000000 0.000000 0.000000 
2.190365 50.757408 4.908473 0.000000 0.000000 0.000000 10.001221 -31.773063 4.558058 -79.656207 -9.881879 31.987279 78.013505 -14.979175 6.837967 20.054188 6.650448 -16.362055 -7.501407 2.881963 -2.858571 0.000000 0.000000 0.000000 9.629675 -31.653214 4.109951 -114.808636 -21.196053 -7.174967 105.640016 23.257836 -2.215486 27.241311 19.846400 45.203090 11.303832 -21.024678 -30.491221 0.000000 0.000000 0.000000 11.736113 -25.684590 5.234743 22.870096 1.003184 -10.371608 15.114355 -3.870792 -0.670912 0.244895 0.158381 0.055954 0.000000 0.000000 0.000000 16.200454 -1.877142 -1.275311 2.617610 0.725442 -4.543000 -11.792820 44.231991 -22.446290 0.000000 0.000000 0.000000 16.757695 -3.476154 -2.473035 13.203087 -15.704854 -2.199167 2.642901 -4.248392 -2.148949 -67.815903 -17.955667 5.751754 44.105984 -0.981016 20.555297 0.000000 0.000000 0.000000 20.993259 -2.082475 -1.382474 4.145756 20.515091 -7.635415 8.337083 6.365170 2.635581 -45.598620 6.176584 5.333613 -55.960792 44.176308 29.983649 0.000000 0.000000 0.000000 
2.194263 50.736755 4.849964 0.000000 0.000000 0.000000 10.164272 -31.844005 4.765870 -79.572202 -9.773112 31.961324 77.712847 -15.040556 6.675571 19.874744 6.808334 -16.328249 -7.518834 2.825001 -2.800778 0.000000 0.000000 0.000000 9.774833 -31.698963 4.306813 -114.455980 -21.177036 -7.393173 105.317713 23.340382 -2.386523 26.950736 19.793531 45.277553 11.306835 -21.000858 -30.440125 0.000000 0.000000 0.000000 11.774074 -25.745596 5.380916 22.682000 1.029512 -10.371574 14.980386 -3.840267 -0.645481 0.254332 0.172627 0.061719 0.000000 0.000000 0.000000 16.108122 -1.831109 -1.317271 2.650688 0.562616 -4.677519 -11.023856 43.429399 -22.972356 0.000000 0.000000 0.000000 16.650832 -3.431910 -2.450682 13.233405 -15.694163 -2.588338 2.534571 -4.149199 -2.419938 -66.637484 -17.119825 6.100943 44.463428 -1.339470 20.778766 0.000000 0.000000 0.000000 20.892372 -2.046695 -1.412449 3.994742 20.260353 -7.020617 8.457294 6.558472 2.909162 -44.472492 5.826898 4.922453 -55.819359 44.098058 29.814824 0.000000 0.000000 0.000000 
2.189485 50.721867 4.792677 0.000000 0.000000 0.000000 10.321683 -31.891936 5.001830 -79.468288 -9.611563 31.935222 77.338881 -15.140779 6.438830 19.650403 6.942609 -16.297309 -7.483557 2.776015 -2.720813 0.000000 0.000000 0.000000 9.921036 -31.727062 4.532106 -114.120201 -21.123596 -7.620419 105.032593 23.398538 -2.544406 26.673132 19.699642 45.368883 11.384886 -20.989274 -30.360946 0.000000 0.000000 0.000000 11.811800 -25.798668 5.548961 22.548345 1.045099 -10.374268 14.803028 -3.801720 -0.609978 0.264969 0.177237 0.070790 0.000000 0.000000 0.000000 15.961350 -1.771639 -1.352153 2.603833 0.401032 -4.779917 -10.199668 42.721740 -23.580362 0.000000 0.000000 0.000000 16.491644 -3.367410 -2.407272 13.274476 -15.639779 -3.031748 2.361596 -4.004861 -2.609059 -65.560629 -16.029368 6.459332 44.973309 -1.760367 21.137668 0.000000 0.000000 0.000000 20.729457 -2.002319 -1.442381 3.841119 20.005725 -6.346933 8.636980 6.743728 3.056432 -43.434536 5.347596 4.454979 -55.843029 44.122189 29.827067 0.000000 0.000000 0.000000 
2.177151 50.715294 4.743060 0.000000 0.000000 0.000000 10.471705 -31.923819 5.236554 -79.357673 -9.416897 31.908386 76.939130 -15.269708 6.158476 19.400275 7.044249 -16.305354 -7.381023 2.742819 -2.638581 0.000000 0.000000 0.000000 10.066441 -31.760998 4.763562 -113.857628 -21.025093 -7.858080 104.805011 23.457583 -2.678383 26.455592 19.621211 45.493158 11.514953 -20.987180 -30.278119 0.000000 0.000000 0.000000 11.857132 -25.850973 5.723319 22.464509 1.053219 -10.354534 14.579691 -3.759447 -0.558509 0.270739 0.178880 0.069315 0.000000 0.000000 0.000000 15.761109 -1.705797 -1.368368 2.512231 0.255533 -4.866985 -9.340940 42.128525 -24.276618 0.000000 0.000000 0.000000 16.280924 -3.293214 -2.342906 13.305716 -15.491999 -3.550620 2.143729 -3.813332 -2.735358 -64.647071 -14.636148 6.834779 45.552321 -2.193346 21.570760 0.000000 0.000000 0.000000 20.503770 -1.950885 -1.450320 3.672306 19.740770 -5.639533 8.803722 6.846243 3.065895 -42.423429 4.702625 3.955751 -56.030108 44.301860 30.007169 0.000000 0.000000 0.000000 
